<svg width="49" height="51" viewBox="0 0 49 51" fill="none" xmlns="http://www.w3.org/2000/svg">
<path d="M42.0003 32.1313V43.6485H6.77105V32.1313H0V47.034C0 48.9026 1.51365 50.4179 3.39057 50.4179H45.3808C47.2561 50.4179 48.7714 48.9042 48.7714 47.034V32.1313H42.0003Z" fill="white"/>
<path d="M23.7654 30.9894L14.0713 19.2755C14.0713 19.2755 12.5964 17.8829 14.1958 17.8829C15.7952 17.8829 19.6584 17.8829 19.6584 17.8829C19.6584 17.8829 19.6584 16.9461 19.6584 15.5014C19.6584 11.3826 19.6584 3.88671 19.6584 0.830824C19.6584 0.830824 19.4414 0 20.6927 0C21.9541 0 27.4789 0 28.382 0C29.2835 0 29.2633 0.699641 29.2633 0.699641C29.2633 3.66303 29.2633 11.4179 29.2633 15.4022C29.2633 16.6938 29.2633 17.5314 29.2633 17.5314C29.2633 17.5314 32.3612 17.5314 34.3054 17.5314C36.2463 17.5314 34.7847 18.9895 34.7847 18.9895C34.7847 18.9895 26.5371 29.9382 25.3867 31.0869C24.5592 31.9194 23.7654 30.9894 23.7654 30.9894Z" fill="white"/>
</svg>
